 http://img293.imageshack.us/img293/5909/posterdz.jpg



[i][b]Director:Wayne Kennedy
Writers:Wayne Kennedy
Genre:Action | Crime | Drama | Thriller
Language: English
Encoded By: D34dLy
http://www.imdb.com/title/tt1274418/
Tagline:Some sins can never be forgiven.

Cast:
Ho-Sung Pak ... Lee Choe
Peter Greene ... John Lowe
Roger Guenveur Smith ... Det. Craig Barnes
Robin Paul ... Sarah Reeves
Sherilyn Fenn ... Katie Barnes
Rosa Blasi ... Woman in Black
Antonio Fargas ... Father Riley
Ed Marinaro ... Raymond Miles
Michael Dorn ... Arnold Denton
John Dye ... I.A. Officer
A Martinez ... Anthony Black
Brian Thompson ... Max
Isaac C. Singleton Jr. ... Frank
Richard Gant ... Chief Matthews
Lara Phillips ... Jenny Reeves

Plot:

Hit-man Lee Choe decides to retire to live a normal life. After refusing an order from mobster John Lowe, Lowe has Lee's girlfriend killed. In order to seek vengeance, Lee goes on a mission to kill Lowe, who turns to corrupt detective Craig Barnes to frame him. At the same time, Barnes, who's being investigated by internal affairs, has to deal with his unhappy, alcoholic wife. With events coming to a head for Lee, Barnes and Lowe, the stage is set for a three-way showdown


General Info:
Complete name : Fist.Of.The.Warrior.2009.DVDRip.H264.AAC-D34dLy.mp4
Format : MPEG-4
Format profile : Base Media
Codec ID : isom
File size : 350 MiB
Duration : 1h 28mn
Overall bit rate : 555 Kbps
Encoded date : UTC 2010-05-22 01:07:10
Tagged date : UTC 2010-05-22 01:07:10

Video Info:
ID : 1
Format : AVC
Format/Info : Advanced Video Codec
Format profile : High@L4.1
Format settings, CABAC : Yes
Format settings, ReFrames : 3 frames
Codec ID : avc1
Codec ID/Info : Advanced Video Coding
Duration : 1h 28mn
Bit rate mode : Variable
Bit rate : 490 Kbps
Maximum bit rate : 5 512 Kbps
Width : 640 pixels
Height : 360 pixels
Display aspect ratio : 16:9
Frame rate mode : Constant
Frame rate : 29.970 fps
Resolution : 8 bits
Colorimetry : 4:2:0
Scan type : Progressive
Bits/(Pixel*Frame) : 0.071
Stream size : 308 MiB (88%)
Title : Imported with GPAC 0.4.6-DEV (build 1)
Writing library : x264 core 80 r1376M 3feaec2
Encoding settings : cabac=1 / ref=3 / deblock=1:-2:-1 / analyse=0x3:0x113 / me=umh / subme=5 / psy=1 / psy_rd=0.0:0.0 / mixed_ref=1 / me_range=12 / chroma_me=1 / trellis=1 / 8x8dct=1 / cqm=0 / deadzone=21,11 / fast_pskip=1 / chroma_qp_offset=0 / threads=3 / sliced_threads=0 / nr=0 / decimate=1 / mbaff=0 / constrained_intra=0 / bframes=16 / b_pyramid=0 / b_adapt=1 / b_bias=0 / direct=3 / wpredb=1 / wpredp=2 / keyint=250 / keyint_min=25 / scenecut=40 / rc_lookahead=40 / rc=2pass / mbtree=1 / bitrate=490 / ratetol=1.0 / qcomp=0.60 / qpmin=10 / qpmax=51 / qpstep=4 / cplxblur=20.0 / qblur=0.5 / ip_ratio=1.40 / aq=2:1.00
Encoded date : UTC 2010-05-22 01:07:10
Tagged date : UTC 2010-05-22 01:07:55

Audio Info:
ID : 2
Format : AAC
Format/Info : Advanced Audio Codec
Format version : Version 4
Format profile : LC
Format settings, SBR : Yes
Format settings, PS : No
Codec ID : 40
Duration : 1h 28mn
Bit rate mode : Variable
Bit rate : 63.9 Kbps
Maximum bit rate : 99.7 Kbps
Channel(s) : 2 channels
Channel positions : Front: L R
Sampling rate : 44.1 KHz
Stream size : 40.3 MiB (12%)
Encoded date : UTC 2010-05-22 01:07:52
Tagged date : UTC 2010-05-22 01:07:55





Screenshot:[/i][/b]
 
http://img249.imageshack.us/img249/7766/91654118.jpg 
http://img41.imageshack.us/img41/4862/73569588.jpg 
http://img84.imageshack.us/img84/9277/aaaip.jpg 
http://img156.imageshack.us/img156/3721/aaaaps.jpg 
http://img23.imageshack.us/img23/1048/aaaaaoj.jpg 
http://img38.imageshack.us/img38/9915/fistofthewarrior2009dvd.jpg

